<svg width="11" height="4" viewBox="0 0 11 4" fill="none" xmlns="http://www.w3.org/2000/svg">
  <g filter="url(#filter0_i_285_186)">
    <path fill-rule="evenodd" clip-rule="evenodd"
      d="M1.83289 2.00549C1.83289 1.59128 2.20992 1.25549 2.67501 1.25549H8.99092C9.45601 1.25549 9.83304 1.59128 9.83304 2.00549C9.83304 2.41971 9.45601 2.75549 8.99092 2.75549H2.67501C2.20992 2.75549 1.83289 2.41971 1.83289 2.00549Z"
      fill="url(#paint0_linear_285_186)" />
  </g>
  <path
    d="M2.67501 0.755493C1.98981 0.755493 1.33289 1.26225 1.33289 2.00549C1.33289 2.74874 1.98981 3.25549 2.67501 3.25549H8.99092C9.67611 3.25549 10.333 2.74874 10.333 2.00549C10.333 1.26225 9.67611 0.755493 8.99092 0.755493H2.67501Z"
    stroke="white" stroke-opacity="0.5" />
  <defs>
    <filter id="filter0_i_285_186" x="0.832886" y="0.255493" width="12.0001" height="5.5" filterUnits="userSpaceOnUse"
      color-interpolation-filters="sRGB">
      <feFlood flood-opacity="0" result="BackgroundImageFix" />
      <feBlend mode="normal" in="SourceGraphic" in2="BackgroundImageFix" result="shape" />
      <feColorMatrix in="SourceAlpha" type="matrix" values="0 0 0 0 0 0 0 0 0 0 0 0 0 0 0 0 0 0 127 0"
        result="hardAlpha" />
      <feOffset dx="2" dy="2" />
      <feGaussianBlur stdDeviation="2" />
      <feComposite in2="hardAlpha" operator="arithmetic" k2="-1" k3="1" />
      <feColorMatrix type="matrix" values="0 0 0 0 0 0 0 0 0 0 0 0 0 0 0 0 0 0 0.25 0" />
      <feBlend mode="normal" in2="shape" result="effect1_innerShadow_285_186" />
    </filter>
    <linearGradient id="paint0_linear_285_186" x1="1.83289" y1="2.75549" x2="9.83304" y2="2.75549"
      gradientUnits="userSpaceOnUse">
      <stop stop-color="#92A0A9" />
      <stop offset="1" stop-color="#BEC7D7" />
    </linearGradient>
  </defs>
</svg>