<svg width="10" height="15" viewBox="0 0 10 15" fill="none" xmlns="http://www.w3.org/2000/svg">
  <g filter="url(#filter0_i_285_45)">
    <path
      d="M3.50379 1.42957L8.47094 6.39672C9.0437 6.96948 9.0437 7.89812 8.47094 8.47088L3.5038 13.438C2.93103 14.0108 2.00239 14.0108 1.42963 13.438C0.856864 12.8653 0.856864 11.9366 1.42963 11.3639L5.35969 7.4338L1.42963 3.50374C0.856862 2.93098 0.856863 2.00234 1.42963 1.42957C2.00239 0.856809 2.93103 0.856809 3.50379 1.42957Z"
      fill="url(#paint0_linear_285_45)" />
  </g>
  <path
    d="M1.07607 1.07602L1.41953 1.41947L1.07607 1.07602C1.8441 0.307993 3.08932 0.307993 3.85735 1.07602L8.82449 6.04316C9.59252 6.81119 9.59252 8.05641 8.82449 8.82444L3.85735 13.7916C3.08932 14.5596 1.8441 14.5596 1.07608 13.7916C0.308048 13.0236 0.308048 11.7783 1.07608 11.0103L4.65258 7.4338L1.07607 3.85729C0.308046 3.08927 0.308048 1.84405 1.07607 1.07602Z"
    stroke="white" stroke-opacity="0.5" />
  <defs>
    <filter id="filter0_i_285_45" x="0" y="0" width="11.9005" height="16.8676" filterUnits="userSpaceOnUse"
      color-interpolation-filters="sRGB">
      <feFlood flood-opacity="0" result="BackgroundImageFix" />
      <feBlend mode="normal" in="SourceGraphic" in2="BackgroundImageFix" result="shape" />
      <feColorMatrix in="SourceAlpha" type="matrix" values="0 0 0 0 0 0 0 0 0 0 0 0 0 0 0 0 0 0 127 0"
        result="hardAlpha" />
      <feOffset dx="2" dy="2" />
      <feGaussianBlur stdDeviation="2" />
      <feComposite in2="hardAlpha" operator="arithmetic" k2="-1" k3="1" />
      <feColorMatrix type="matrix" values="0 0 0 0 0 0 0 0 0 0 0 0 0 0 0 0 0 0 0.25 0" />
      <feBlend mode="normal" in2="shape" result="effect1_innerShadow_285_45" />
    </filter>
    <linearGradient id="paint0_linear_285_45" x1="8.90051" y1="13.8676" x2="1.00005" y2="13.8676"
      gradientUnits="userSpaceOnUse">
      <stop stop-color="#92A0A9" />
      <stop offset="1" stop-color="#BEC7D7" />
    </linearGradient>
  </defs>
</svg>