<svg width="8" height="6" viewBox="0 0 8 6" fill="none" xmlns="http://www.w3.org/2000/svg">
  <g filter="url(#filter0_i_285_140)">
    <path
      d="M7.20229 3.77132L4.55315 1.12217C4.24767 0.816697 3.7524 0.816697 3.44693 1.12217L0.797782 3.77131C0.492308 4.07679 0.492308 4.57206 0.797782 4.87754C1.10326 5.18301 1.59853 5.18301 1.904 4.87754L4.00004 2.78151L6.09607 4.87754C6.40154 5.18301 6.89682 5.18301 7.20229 4.87754C7.50776 4.57206 7.50777 4.07679 7.20229 3.77132Z"
      fill="url(#paint0_linear_285_140)" />
  </g>
  <path
    d="M7.39085 3.58275L4.74171 0.933611C4.33209 0.523996 3.66798 0.523996 3.25836 0.933611L0.60922 3.58275C0.199606 3.99237 0.199606 4.65648 0.60922 5.0661C1.01883 5.47571 1.68295 5.47571 2.09257 5.0661L4.00004 3.15863L5.90751 5.0661C6.31712 5.47571 6.98124 5.47571 7.39085 5.0661C7.80047 4.65649 7.80047 3.99237 7.39085 3.58275Z"
    stroke="white" stroke-opacity="0.5" stroke-width="0.533333" />
  <defs>
    <filter id="filter0_i_285_140" x="0.0354004" y="0.359741" width="8.99599" height="6.34694"
      filterUnits="userSpaceOnUse" color-interpolation-filters="sRGB">
      <feFlood flood-opacity="0" result="BackgroundImageFix" />
      <feBlend mode="normal" in="SourceGraphic" in2="BackgroundImageFix" result="shape" />
      <feColorMatrix in="SourceAlpha" type="matrix" values="0 0 0 0 0 0 0 0 0 0 0 0 0 0 0 0 0 0 127 0"
        result="hardAlpha" />
      <feOffset dx="1.06667" dy="1.06667" />
      <feGaussianBlur stdDeviation="1.06667" />
      <feComposite in2="hardAlpha" operator="arithmetic" k2="-1" k3="1" />
      <feColorMatrix type="matrix" values="0 0 0 0 0 0 0 0 0 0 0 0 0 0 0 0 0 0 0.25 0" />
      <feBlend mode="normal" in2="shape" result="effect1_innerShadow_285_140" />
    </filter>
    <linearGradient id="paint0_linear_285_140" x1="0.568676" y1="0.893066" x2="0.568676" y2="5.10664"
      gradientUnits="userSpaceOnUse">
      <stop stop-color="#92A0A9" />
      <stop offset="1" stop-color="#BEC7D7" />
    </linearGradient>
  </defs>
</svg>