<svg width="48" height="48" viewBox="0 0 48 48" fill="none" xmlns="http://www.w3.org/2000/svg">
  <g filter="url(#filter0_ii_214_899)">
    <path
      d="M18.0669 10.8671C19.9166 5.17452 27.97 5.17452 29.8196 10.8671C30.6468 13.4128 33.0192 15.1365 35.6959 15.1365C41.6814 15.1365 44.1701 22.7958 39.3277 26.3139C37.1622 27.8873 36.256 30.6762 37.0832 33.222C38.9328 38.9145 32.4174 43.6482 27.575 40.13C25.4095 38.5567 22.4771 38.5567 20.3115 40.13C15.4691 43.6482 8.95376 38.9145 10.8034 33.222C11.6306 30.6762 10.7244 27.8873 8.55881 26.3139C3.71645 22.7958 6.20509 15.1365 12.1906 15.1365C14.8674 15.1365 17.2398 13.4128 18.0669 10.8671Z"
      fill="url(#paint0_linear_214_899)" />
  </g>
  <path
    d="M30.2951 10.7126C28.2958 4.55936 19.5907 4.55936 17.5914 10.7126C16.8312 13.0523 14.6508 14.6365 12.1906 14.6365C5.72073 14.6365 3.0307 22.9156 8.26492 26.7184C10.2553 28.1645 11.0881 30.7277 10.3278 33.0675C8.32855 39.2207 15.3712 44.3374 20.6054 40.5345C22.5957 39.0885 25.2908 39.0885 27.2812 40.5345C32.5154 44.3374 39.558 39.2207 37.5587 33.0675C36.7985 30.7277 37.6313 28.1645 39.6216 26.7184C44.8558 22.9156 42.1658 14.6365 35.6959 14.6365C33.2358 14.6365 31.0554 13.0523 30.2951 10.7126Z"
    stroke="white" stroke-opacity="0.5" />
  <g filter="url(#filter1_f_214_899)">
    <path
      d="M18.0669 10.8671C19.9166 5.17452 27.97 5.17452 29.8196 10.8671C30.6468 13.4128 33.0192 15.1365 35.6959 15.1365C41.6814 15.1365 44.1701 22.7958 39.3277 26.3139C37.1622 27.8873 36.256 30.6762 37.0832 33.222C38.9328 38.9145 32.4174 43.6482 27.575 40.13C25.4095 38.5567 22.4771 38.5567 20.3115 40.13C15.4691 43.6482 8.95376 38.9145 10.8034 33.222C11.6306 30.6762 10.7244 27.8873 8.55881 26.3139C3.71645 22.7958 6.20509 15.1365 12.1906 15.1365C14.8674 15.1365 17.2398 13.4129 18.0669 10.8671Z"
      stroke="white" stroke-opacity="0.8" stroke-width="4" />
  </g>
  <defs>
    <filter id="filter0_ii_214_899" x="-0.00189209" y="5.59766" width="50.8903" height="40.7449"
      filterUnits="userSpaceOnUse" color-interpolation-filters="sRGB">
      <feFlood flood-opacity="0" result="BackgroundImageFix" />
      <feBlend mode="normal" in="SourceGraphic" in2="BackgroundImageFix" result="shape" />
      <feColorMatrix in="SourceAlpha" type="matrix" values="0 0 0 0 0 0 0 0 0 0 0 0 0 0 0 0 0 0 127 0"
        result="hardAlpha" />
      <feOffset dx="-5" dy="2" />
      <feGaussianBlur stdDeviation="7" />
      <feComposite in2="hardAlpha" operator="arithmetic" k2="-1" k3="1" />
      <feColorMatrix type="matrix" values="0 0 0 0 0.143144 0 0 0 0 0.137222 0 0 0 0 0.433333 0 0 0 0.25 0" />
      <feBlend mode="normal" in2="shape" result="effect1_innerShadow_214_899" />
      <feColorMatrix in="SourceAlpha" type="matrix" values="0 0 0 0 0 0 0 0 0 0 0 0 0 0 0 0 0 0 127 0"
        result="hardAlpha" />
      <feOffset dx="8" dy="4" />
      <feGaussianBlur stdDeviation="7" />
      <feComposite in2="hardAlpha" operator="arithmetic" k2="-1" k3="1" />
      <feColorMatrix type="matrix" values="0 0 0 0 0.478431 0 0 0 0 0.505882 0 0 0 0 0.580392 0 0 0 0.5 0" />
      <feBlend mode="normal" in2="effect1_innerShadow_214_899" result="effect2_innerShadow_214_899" />
    </filter>
    <filter id="filter1_f_214_899" x="-0.00384521" y="0.597656" width="47.8942" height="46.7495"
      filterUnits="userSpaceOnUse" color-interpolation-filters="sRGB">
      <feFlood flood-opacity="0" result="BackgroundImageFix" />
      <feBlend mode="normal" in="SourceGraphic" in2="BackgroundImageFix" result="shape" />
      <feGaussianBlur stdDeviation="2" result="effect1_foregroundBlur_214_899" />
    </filter>
    <linearGradient id="paint0_linear_214_899" x1="23.9433" y1="6.59766" x2="23.9433" y2="41.3381"
      gradientUnits="userSpaceOnUse">
      <stop stop-color="white" />
      <stop offset="1" stop-color="white" stop-opacity="0" />
    </linearGradient>
  </defs>
</svg>