<svg width="93" height="93" viewBox="0 0 93 93" fill="none" xmlns="http://www.w3.org/2000/svg">
  <g filter="url(#filter0_d_214_909)">
    <path
      d="M39.0669 31.8694C40.9166 26.1768 48.97 26.1768 50.8196 31.8694C51.6468 34.4152 54.0192 36.1388 56.6959 36.1388C62.6814 36.1388 65.1701 43.7981 60.3277 47.3163C58.1622 48.8896 57.256 51.6785 58.0832 54.2243C59.9328 59.9169 53.4174 64.6505 48.575 61.1324C46.4095 59.559 43.4771 59.559 41.3115 61.1324C36.4691 64.6505 29.9538 59.9169 31.8034 54.2243C32.6306 51.6785 31.7244 48.8896 29.5588 47.3163C24.7164 43.7981 27.2051 36.1388 33.1906 36.1388C35.8674 36.1388 38.2398 34.4152 39.0669 31.8694Z"
      fill="url(#paint0_linear_214_909)" />
  </g>
  <g filter="url(#filter1_d_214_909)">
    <path
      d="M39.0669 31.8694C40.9166 26.1768 48.97 26.1768 50.8196 31.8694C51.6468 34.4152 54.0192 36.1388 56.6959 36.1388C62.6814 36.1388 65.1701 43.7981 60.3277 47.3163C58.1622 48.8896 57.256 51.6785 58.0832 54.2243C59.9328 59.9169 53.4174 64.6505 48.575 61.1324C46.4095 59.559 43.4771 59.559 41.3115 61.1324C36.4691 64.6505 29.9538 59.9169 31.8034 54.2243C32.6306 51.6785 31.7244 48.8896 29.5588 47.3163C24.7164 43.7981 27.2051 36.1388 33.1906 36.1388C35.8674 36.1388 38.2398 34.4152 39.0669 31.8694Z"
      fill="url(#paint1_linear_214_909)" />
    <path
      d="M39.0669 31.8694C40.9166 26.1768 48.97 26.1768 50.8196 31.8694C51.6468 34.4152 54.0192 36.1388 56.6959 36.1388C62.6814 36.1388 65.1701 43.7981 60.3277 47.3163C58.1622 48.8896 57.256 51.6785 58.0832 54.2243C59.9328 59.9169 53.4174 64.6505 48.575 61.1324C46.4095 59.559 43.4771 59.559 41.3115 61.1324C36.4691 64.6505 29.9538 59.9169 31.8034 54.2243C32.6306 51.6785 31.7244 48.8896 29.5588 47.3163C24.7164 43.7981 27.2051 36.1388 33.1906 36.1388C35.8674 36.1388 38.2398 34.4152 39.0669 31.8694Z"
      fill="url(#paint2_linear_214_909)" />
    <path
      d="M39.0669 31.8694C40.9166 26.1768 48.97 26.1768 50.8196 31.8694C51.6468 34.4152 54.0192 36.1388 56.6959 36.1388C62.6814 36.1388 65.1701 43.7981 60.3277 47.3163C58.1622 48.8896 57.256 51.6785 58.0832 54.2243C59.9328 59.9169 53.4174 64.6505 48.575 61.1324C46.4095 59.559 43.4771 59.559 41.3115 61.1324C36.4691 64.6505 29.9538 59.9169 31.8034 54.2243C32.6306 51.6785 31.7244 48.8896 29.5588 47.3163C24.7164 43.7981 27.2051 36.1388 33.1906 36.1388C35.8674 36.1388 38.2398 34.4152 39.0669 31.8694Z"
      stroke="#CCD7E9" stroke-opacity="0.2" stroke-width="4" />
  </g>
  <defs>
    <filter id="filter0_d_214_909" x="5" y="5.59998" width="87.8865" height="86.7404" filterUnits="userSpaceOnUse"
      color-interpolation-filters="sRGB">
      <feFlood flood-opacity="0" result="BackgroundImageFix" />
      <feColorMatrix in="SourceAlpha" type="matrix" values="0 0 0 0 0 0 0 0 0 0 0 0 0 0 0 0 0 0 127 0"
        result="hardAlpha" />
      <feOffset dx="4" dy="4" />
      <feGaussianBlur stdDeviation="13" />
      <feColorMatrix type="matrix" values="0 0 0 0 0.639216 0 0 0 0 0.694118 0 0 0 0 0.776471 0 0 0 0.7 0" />
      <feBlend mode="normal" in2="BackgroundImageFix" result="effect1_dropShadow_214_909" />
      <feBlend mode="normal" in="SourceGraphic" in2="effect1_dropShadow_214_909" result="shape" />
    </filter>
    <filter id="filter1_d_214_909" x="-0.00384521" y="0.599976" width="71.8942" height="70.7495"
      filterUnits="userSpaceOnUse" color-interpolation-filters="sRGB">
      <feFlood flood-opacity="0" result="BackgroundImageFix" />
      <feColorMatrix in="SourceAlpha" type="matrix" values="0 0 0 0 0 0 0 0 0 0 0 0 0 0 0 0 0 0 127 0"
        result="hardAlpha" />
      <feOffset dx="-9" dy="-9" />
      <feGaussianBlur stdDeviation="8" />
      <feColorMatrix type="matrix" values="0 0 0 0 1 0 0 0 0 1 0 0 0 0 1 0 0 0 0.6 0" />
      <feBlend mode="normal" in2="BackgroundImageFix" result="effect1_dropShadow_214_909" />
      <feBlend mode="normal" in="SourceGraphic" in2="effect1_dropShadow_214_909" result="shape" />
    </filter>
    <linearGradient id="paint0_linear_214_909" x1="44.9433" y1="27.6" x2="44.9433" y2="64.2767"
      gradientUnits="userSpaceOnUse">
      <stop stop-color="#D0E8FF" stop-opacity="0.2" />
      <stop offset="0.489583" stop-color="#F9F9D5" stop-opacity="0.1979" />
      <stop offset="1" stop-color="#FFD7FD" stop-opacity="0" />
    </linearGradient>
    <linearGradient id="paint1_linear_214_909" x1="28.3541" y1="27.6" x2="59.7605" y2="67.0226"
      gradientUnits="userSpaceOnUse">
      <stop stop-color="#D8EBFF" stop-opacity="0.2" />
      <stop offset="0.41564" stop-color="#FFEAFD" stop-opacity="0.199136" />
      <stop offset="1" stop-color="#FEFFDA" stop-opacity="0.1979" />
    </linearGradient>
    <linearGradient id="paint2_linear_214_909" x1="44.9433" y1="27.6" x2="44.9433" y2="62.3404"
      gradientUnits="userSpaceOnUse">
      <stop stop-color="white" />
      <stop offset="1" stop-color="white" stop-opacity="0" />
    </linearGradient>
  </defs>
</svg>